<svg width="91" height="86" viewBox="0 0 91 86" fill="none" xmlns="http://www.w3.org/2000/svg">
<path d="M48.9658 16.125L31.9033 32.25H14.8408V53.75H31.9033L48.9658 69.875V16.125ZM58.112 20.7724L57.2838 23.6928C66.5377 26.036 72.96 33.9456 72.96 43C72.96 52.0542 66.5377 59.9638 57.2838 62.3072L58.112 65.2276C68.7494 62.5339 76.1592 53.4077 76.1592 43C76.1592 32.5922 68.7494 23.4661 58.112 20.7724ZM55.9037 28.5602L55.0758 31.4807C60.6003 32.8795 64.4287 37.5951 64.4287 43C64.4287 48.4049 60.6003 53.1205 55.0758 54.5193L55.9037 57.4398C62.8117 55.6904 67.6279 49.7586 67.6279 43C67.6279 36.2413 62.8117 30.3096 55.9037 28.5602ZM53.6955 36.3478L52.8678 39.2682C54.6622 39.7229 55.8975 41.2442 55.8975 43C55.8975 44.7558 54.6622 46.2771 52.8676 46.7318L53.6955 49.6522C56.8741 48.8473 59.0969 46.1098 59.0969 43C59.0969 39.8904 56.8741 37.1527 53.6955 36.3478Z" fill="black"/>
</svg>
